<svg width="268" height="300" viewBox="0 0 268 300" fill="none" xmlns="http://www.w3.org/2000/svg">
<ellipse cx="133.817" cy="145.858" rx="95.5836" ry="97.2388" fill="url(#paint0_linear_10_89)"/>
<path d="M83.9607 71.745L101.326 68.1211C102.236 67.9323 103.109 68.2437 103.723 68.9758L106.639 72.4605C107.249 73.1893 107.429 74.1366 107.132 75.0575C106.835 75.9784 106.142 76.6144 105.231 76.8032L101.496 77.5882C100.785 77.7373 100.118 77.5849 99.5263 77.1411L97.4707 75.5974C96.7939 75.0906 96.0033 74.9614 95.2127 75.2331L85.8613 78.4296C84.843 78.7741 84.1726 79.6983 84.1188 80.8146L83.9006 85.3925C83.8658 86.1278 84.0872 86.7738 84.5647 87.317C85.0391 87.857 85.6336 88.1451 86.3357 88.1716L96.6895 88.5658C97.5782 88.599 98.3277 89.0693 98.7799 89.8743L101.911 95.4691C102.584 96.6748 102.252 98.2151 101.149 99.0002L74.3247 118.093C73.8535 118.428 73.3601 118.574 72.7941 118.547L62.924 118.103C62.0101 118.064 61.2068 118.491 60.704 119.292L56.6023 125.795C55.9161 126.885 56.0773 128.306 56.9881 129.194L59.4959 131.648C60.2075 132.34 61.1657 132.549 62.0797 132.205L70.1091 129.18C71.1021 128.806 72.1584 129.091 72.8605 129.919L74.1634 131.469C74.3974 131.744 74.5049 132.072 74.4796 132.44C74.4543 132.807 74.3057 133.116 74.0369 133.354L73.1577 134.142C72.1837 135.014 71.9813 136.488 72.6834 137.607L75.7731 142.546C76.2854 143.361 77.1108 143.795 78.0406 143.735L90.1022 142.98C90.741 142.94 91.326 143.099 91.8099 143.537L105.731 156.17C106.022 156.435 106.341 156.571 106.718 156.664L112.799 158.131C114.13 158.453 114.978 159.827 114.712 161.229L112.331 173.859C112.274 174.169 112.156 174.415 112.022 174.696L112.002 174.737L98.508 202.84C98.4068 203.049 98.3087 203.224 98.2455 203.446L96.3132 209.989C96.1583 210.509 96.1551 210.999 96.3037 211.522L97.3663 215.288C97.439 215.547 97.4707 215.772 97.4707 216.04V217.905C97.4707 218.475 97.6193 218.965 97.9324 219.432L97.9609 219.472C98.5174 220.304 98.5839 221.317 98.1379 222.218C97.692 223.119 96.8603 223.649 95.8926 223.649H94.4126C93.3184 223.649 92.3854 222.954 92.0249 221.87L84.9663 200.674C84.862 200.359 84.8177 200.074 84.824 199.74L85.3016 178.447C85.3237 177.506 84.9537 176.605 84.1567 176.168L66.4533 166.429C65.7102 166.022 65.3465 165.214 65.3085 164.336L65.0429 158.516C65.0271 158.201 64.9196 157.833 65.1472 157.625L70.3621 152.759C70.9124 152.245 70.4886 151.298 70.1091 150.635L63.4269 138.939C63.0158 138.22 62.3706 137.78 61.5768 137.674L53.364 136.57C52.8769 136.504 52.4753 136.325 52.0958 136.001L46.8208 131.535C46.0555 130.886 45.7298 129.899 45.9448 128.892C51.0079 105.373 64.5559 85.2202 83.0404 72.1458C83.3313 71.9404 83.616 71.8146 83.9607 71.745Z" fill="url(#paint1_linear_10_89)"/>
<path d="M184.059 74.6865L171.437 79.4565C170.473 79.8175 169.458 79.5691 168.749 78.794L163.493 73.0435C162.661 72.1326 161.374 71.957 160.347 72.6162L147.747 80.6755C146.568 81.4274 146.185 83.0439 146.89 84.2894L147.82 85.9324C148.456 87.0487 148.234 88.4532 147.289 89.2979L137.134 98.4006C136.388 99.0664 136.087 100.054 136.321 101.051C136.559 102.048 137.264 102.77 138.219 102.998L147.336 105.158C147.703 105.248 148.032 105.248 148.402 105.171L162.623 102.127C163.499 101.938 164.341 102.213 164.957 102.892L173.901 112.697C174.634 113.499 174.812 114.632 174.369 115.639L171.652 121.8C171.206 122.81 170.264 123.403 169.201 123.334L130.569 120.836C129.484 120.767 128.523 121.386 128.09 122.429L123.245 134.172C122.909 134.987 122.966 135.845 123.409 136.604L130.673 149.082C131.135 149.88 131.894 150.334 132.783 150.354L147.219 150.649C148.345 150.672 149.287 151.427 149.601 152.56L152.168 161.825C152.191 161.911 152.21 161.987 152.225 162.077L157.696 192.75C157.927 194.052 159.018 194.963 160.283 194.91L165.157 194.705C166.162 194.665 167 194.052 167.389 193.082L180.877 159.311C180.953 159.122 181.032 158.973 181.143 158.807L188.293 148.181C188.745 147.505 188.872 146.73 188.657 145.935C188.442 145.14 187.948 144.547 187.224 144.222L183.208 142.41C182.813 142.235 182.436 142.169 182.006 142.205L179.226 142.434C178.018 142.536 176.934 141.751 176.595 140.529L175.27 135.716C175.112 135.139 175.327 134.547 175.811 134.225C176.298 133.907 176.902 133.96 177.329 134.361C178.075 135.063 179.097 135.236 180.026 134.812L186.301 131.936C186.971 131.628 187.439 131.098 187.68 130.373C187.917 129.647 187.86 128.929 187.515 128.253L187.183 127.607C186.974 127.196 186.611 126.951 186.171 126.915C185.409 126.852 184.729 126.431 184.286 125.729C183.733 124.851 183.714 123.784 184.242 122.887L185.567 120.617C186.19 119.551 187.401 119.09 188.53 119.488L203.457 124.751C203.919 124.914 204.276 125.169 204.589 125.56L208.191 130.061C208.498 130.442 208.846 130.694 209.295 130.86L210.854 131.433C211.664 131.728 212.23 132.367 212.457 133.235L215.927 146.554C216.189 147.568 216.945 148.29 217.935 148.469L218.792 148.621C219.57 148.764 220.294 148.552 220.889 148.005C221.483 147.462 221.78 146.74 221.752 145.912C220.711 116.98 207.084 91.4212 186.443 75.0674C185.741 74.5109 184.887 74.3751 184.059 74.6865Z" fill="url(#paint2_linear_10_89)"/>
<g clip-path="url(#paint3_diamond_10_89_clip_path)" data-figma-skip-parse="true"><g transform="matrix(0.0285806 0.0611074 -0.356321 0.172477 110.162 107.343)"><rect x="0" y="0" width="1399.26" height="356.222" fill="url(#paint3_diamond_10_89)" opacity="1" shape-rendering="crispEdges"/><rect x="0" y="0" width="1399.26" height="356.222" transform="scale(1 -1)" fill="url(#paint3_diamond_10_89)" opacity="1" shape-rendering="crispEdges"/><rect x="0" y="0" width="1399.26" height="356.222" transform="scale(-1 1)" fill="url(#paint3_diamond_10_89)" opacity="1" shape-rendering="crispEdges"/><rect x="0" y="0" width="1399.26" height="356.222" transform="scale(-1)" fill="url(#paint3_diamond_10_89)" opacity="1" shape-rendering="crispEdges"/></g></g><path d="M261.511 112.506C261.778 113.519 261.452 114.857 260.165 116.59C258.89 118.307 256.79 120.246 253.886 122.366C248.087 126.599 239.29 131.405 228.118 136.48C205.789 146.623 174.146 157.763 138.488 167.483L138.997 169.417C174.726 159.678 206.476 148.505 228.929 138.305C240.148 133.209 249.09 128.336 255.051 123.984C258.027 121.812 260.312 119.733 261.762 117.781C263.199 115.845 263.937 113.862 263.441 111.98L261.511 112.506ZM138.488 167.483C102.83 177.203 69.9516 183.651 45.6287 186.225C33.4593 187.512 23.4779 187.825 16.3761 187.109C12.8196 186.75 10.0474 186.139 8.09942 185.3C6.13273 184.454 5.19296 183.461 4.92603 182.448L2.99643 182.974C3.49222 184.856 5.10556 186.198 7.30173 187.144C9.51656 188.097 12.517 188.735 16.1621 189.103C23.4637 189.839 33.602 189.511 45.8232 188.218C70.2816 185.63 103.269 179.156 138.997 169.417L138.488 167.483ZM4.92603 182.448C4.65517 181.42 4.99542 180.058 6.3278 178.289C7.64645 176.539 9.81408 174.563 12.8047 172.404C18.7765 168.092 27.8251 163.195 39.2956 158.032L38.4907 156.204C26.9728 161.388 17.7817 166.35 11.6477 170.779C8.58552 172.99 6.23376 175.105 4.73968 177.088C3.25933 179.052 2.49352 181.065 2.99643 182.974L4.92603 182.448ZM219.45 108.876C232.005 107.491 242.321 107.115 249.665 107.806C253.343 108.152 256.212 108.761 258.23 109.607C260.268 110.463 261.239 111.473 261.511 112.506L263.441 111.98C262.936 110.063 261.273 108.706 259.011 107.757C256.727 106.799 253.63 106.165 249.866 105.811C242.324 105.101 231.853 105.493 219.246 106.883L219.45 108.876Z" data-figma-gradient-fill="{&#34;type&#34;:&#34;GRADIENT_DIAMOND&#34;,&#34;stops&#34;:[{&#34;color&#34;:{&#34;r&#34;:1.0,&#34;g&#34;:0.21960784494876862,&#34;b&#34;:0.0,&#34;a&#34;:1.0},&#34;position&#34;:0.36893349885940552},{&#34;color&#34;:{&#34;r&#34;:1.0,&#34;g&#34;:0.21960783004760742,&#34;b&#34;:0.0,&#34;a&#34;:0.0},&#34;position&#34;:1.0}],&#34;stopsVar&#34;:[],&#34;transform&#34;:{&#34;m00&#34;:57.161231994628906,&#34;m01&#34;:-712.64270019531250,&#34;m02&#34;:437.90274047851562,&#34;m10&#34;:122.21475219726562,&#34;m11&#34;:344.95468139648438,&#34;m12&#34;:-126.24210357666016},&#34;opacity&#34;:1.0,&#34;blendMode&#34;:&#34;NORMAL&#34;,&#34;visible&#34;:true}"/>
<g clip-path="url(#paint4_diamond_10_89_clip_path)" data-figma-skip-parse="true"><g transform="matrix(0.163207 0.171733 -0.149009 0.146558 -19.4666 -35.5984)"><rect x="0" y="0" width="1660.09" height="112.368" fill="url(#paint4_diamond_10_89)" opacity="1" shape-rendering="crispEdges"/><rect x="0" y="0" width="1660.09" height="112.368" transform="scale(1 -1)" fill="url(#paint4_diamond_10_89)" opacity="1" shape-rendering="crispEdges"/><rect x="0" y="0" width="1660.09" height="112.368" transform="scale(-1 1)" fill="url(#paint4_diamond_10_89)" opacity="1" shape-rendering="crispEdges"/><rect x="0" y="0" width="1660.09" height="112.368" transform="scale(-1)" fill="url(#paint4_diamond_10_89)" opacity="1" shape-rendering="crispEdges"/></g></g><path d="M251.845 244.396C251.26 244.991 250.026 245.293 247.731 244.772C245.503 244.267 242.586 243.052 239.039 241.14C231.958 237.324 222.576 230.85 211.535 222.202C189.465 204.916 160.888 179.045 131.046 148.686L129.644 150.113C159.527 180.513 188.168 206.446 210.326 223.8C221.399 232.473 230.883 239.027 238.111 242.923C241.718 244.867 244.817 246.178 247.3 246.741C249.716 247.289 251.891 247.202 253.247 245.822L251.845 244.396ZM131.046 148.686C101.205 118.328 75.7741 89.2567 58.7822 66.8038C50.2819 55.5716 43.9178 46.0274 40.1665 38.8237C38.2873 35.215 37.093 32.2482 36.5961 29.9811C36.0844 27.6465 36.3809 26.3913 36.966 25.796L35.564 24.3697C34.2079 25.7493 34.122 27.9614 34.6608 30.4201C35.2145 32.9461 36.5035 36.0984 38.4144 39.7679C42.2432 47.1206 48.6862 56.7697 57.2111 68.0343C74.2697 90.5753 99.7618 119.713 129.644 150.113L131.046 148.686ZM218.45 188.669C230.709 203.736 240.177 216.771 245.991 226.612C248.902 231.54 250.867 235.618 251.819 238.722C252.296 240.276 252.502 241.53 252.475 242.496C252.447 243.455 252.195 244.04 251.845 244.396L253.247 245.822C254.069 244.986 254.42 243.837 254.457 242.555C254.493 241.279 254.223 239.785 253.712 238.121C252.689 234.789 250.63 230.55 247.69 225.573C241.802 215.606 232.262 202.481 219.977 187.382L218.45 188.669ZM36.966 25.796C37.3127 25.4434 37.8805 25.1879 38.8094 25.1563C39.7446 25.1245 40.9597 25.3253 42.4646 25.7972C45.4719 26.7401 49.4215 28.6951 54.1958 31.5984C63.7302 37.3965 76.3598 46.856 90.9738 59.1213L92.2356 57.5653C77.591 45.2744 64.8728 35.7413 55.2131 29.8671C50.3903 26.9342 46.2813 24.8831 43.0486 23.8696C41.4336 23.3632 39.9834 23.0982 38.7431 23.1403C37.4964 23.1828 36.3784 23.5412 35.564 24.3697L36.966 25.796Z" data-figma-gradient-fill="{&#34;type&#34;:&#34;GRADIENT_DIAMOND&#34;,&#34;stops&#34;:[{&#34;color&#34;:{&#34;r&#34;:1.0,&#34;g&#34;:0.21960784494876862,&#34;b&#34;:0.0,&#34;a&#34;:1.0},&#34;position&#34;:0.34573596715927124},{&#34;color&#34;:{&#34;r&#34;:1.0,&#34;g&#34;:0.21960784494876862,&#34;b&#34;:0.0,&#34;a&#34;:1.0},&#34;position&#34;:1.0}],&#34;stopsVar&#34;:[],&#34;transform&#34;:{&#34;m00&#34;:326.41439819335938,&#34;m01&#34;:-298.01773071289062,&#34;m02&#34;:-33.664901733398438,&#34;m10&#34;:343.46569824218750,&#34;m11&#34;:293.11654663085938,&#34;m12&#34;:-353.88946533203125},&#34;opacity&#34;:1.0,&#34;blendMode&#34;:&#34;NORMAL&#34;,&#34;visible&#34;:true}"/>
<g clip-path="url(#paint5_diamond_10_89_clip_path)" data-figma-skip-parse="true"><g transform="matrix(0.0235998 0.066291 -0.332137 0.122373 71.9285 68.4471)"><rect x="0" y="0" width="3123.86" height="448.512" fill="url(#paint5_diamond_10_89)" opacity="1" shape-rendering="crispEdges"/><rect x="0" y="0" width="3123.86" height="448.512" transform="scale(1 -1)" fill="url(#paint5_diamond_10_89)" opacity="1" shape-rendering="crispEdges"/><rect x="0" y="0" width="3123.86" height="448.512" transform="scale(-1 1)" fill="url(#paint5_diamond_10_89)" opacity="1" shape-rendering="crispEdges"/><rect x="0" y="0" width="3123.86" height="448.512" transform="scale(-1)" fill="url(#paint5_diamond_10_89)" opacity="1" shape-rendering="crispEdges"/></g></g><path d="M195.619 15.0348C197.241 15.9877 198.464 17.7614 199.216 20.4653C199.968 23.1738 200.218 26.7229 199.953 31.0513C199.423 39.7038 196.853 51.2401 192.465 64.8781C183.694 92.1382 167.728 127.59 146.635 164.756L148.36 165.768C169.499 128.52 185.531 92.9409 194.355 65.5147C198.764 51.8096 201.391 40.0888 201.936 31.1908C202.208 26.744 201.965 22.9444 201.128 19.9334C200.29 16.9178 198.829 14.6012 196.606 13.2954L195.619 15.0348ZM146.635 164.756C125.543 201.921 103.347 233.714 84.5261 255.071C75.1103 265.756 66.5746 273.789 59.4737 278.582C55.9215 280.979 52.7754 282.534 50.0935 283.225C47.4161 283.915 45.2944 283.724 43.6721 282.771L42.6849 284.511C44.9081 285.817 47.6109 285.946 50.5969 285.176C53.5784 284.408 56.9347 282.722 60.5841 280.259C67.8864 275.33 76.5507 267.156 86.0129 256.418C104.948 234.931 127.221 203.016 148.36 165.768L146.635 164.756ZM43.6721 282.771C41.499 281.495 40.0392 278.733 39.4834 274.296C38.9308 269.886 39.3049 264.045 40.574 256.978C43.11 242.855 49.1738 224.079 58.1679 202.58L56.3374 201.783C47.3168 223.346 41.192 242.274 38.6189 256.603C37.3335 263.761 36.9229 269.833 37.5121 274.535C38.098 279.211 39.7066 282.762 42.6849 284.511L43.6721 282.771ZM148.366 50.2411C159.218 37.1098 169.15 27.0673 177.398 20.9409C181.526 17.8755 185.184 15.8268 188.288 14.8428C191.395 13.8581 193.817 13.9764 195.619 15.0348L196.606 13.2954C194.134 11.8438 191.075 11.846 187.682 12.9215C184.287 13.9976 180.429 16.1852 176.216 19.3146C167.783 25.5778 157.733 35.7586 146.838 48.9424L148.366 50.2411Z" data-figma-gradient-fill="{&#34;type&#34;:&#34;GRADIENT_DIAMOND&#34;,&#34;stops&#34;:[{&#34;color&#34;:{&#34;r&#34;:1.0,&#34;g&#34;:0.21960784494876862,&#34;b&#34;:0.0,&#34;a&#34;:1.0},&#34;position&#34;:0.23849509656429291},{&#34;color&#34;:{&#34;r&#34;:1.0,&#34;g&#34;:0.21960783004760742,&#34;b&#34;:0.0,&#34;a&#34;:0.0},&#34;position&#34;:1.0}],&#34;stopsVar&#34;:[],&#34;transform&#34;:{&#34;m00&#34;:47.199684143066406,&#34;m01&#34;:-664.273925781250,&#34;m02&#34;:380.46566772460938,&#34;m10&#34;:132.58190917968750,&#34;m11&#34;:244.74525451660156,&#34;m12&#34;:-120.21652984619141},&#34;opacity&#34;:1.0,&#34;blendMode&#34;:&#34;NORMAL&#34;,&#34;visible&#34;:true}"/>
<defs>
<clipPath id="paint3_diamond_10_89_clip_path"><path d="M261.511 112.506C261.778 113.519 261.452 114.857 260.165 116.59C258.89 118.307 256.79 120.246 253.886 122.366C248.087 126.599 239.29 131.405 228.118 136.48C205.789 146.623 174.146 157.763 138.488 167.483L138.997 169.417C174.726 159.678 206.476 148.505 228.929 138.305C240.148 133.209 249.09 128.336 255.051 123.984C258.027 121.812 260.312 119.733 261.762 117.781C263.199 115.845 263.937 113.862 263.441 111.98L261.511 112.506ZM138.488 167.483C102.83 177.203 69.9516 183.651 45.6287 186.225C33.4593 187.512 23.4779 187.825 16.3761 187.109C12.8196 186.75 10.0474 186.139 8.09942 185.3C6.13273 184.454 5.19296 183.461 4.92603 182.448L2.99643 182.974C3.49222 184.856 5.10556 186.198 7.30173 187.144C9.51656 188.097 12.517 188.735 16.1621 189.103C23.4637 189.839 33.602 189.511 45.8232 188.218C70.2816 185.63 103.269 179.156 138.997 169.417L138.488 167.483ZM4.92603 182.448C4.65517 181.42 4.99542 180.058 6.3278 178.289C7.64645 176.539 9.81408 174.563 12.8047 172.404C18.7765 168.092 27.8251 163.195 39.2956 158.032L38.4907 156.204C26.9728 161.388 17.7817 166.35 11.6477 170.779C8.58552 172.99 6.23376 175.105 4.73968 177.088C3.25933 179.052 2.49352 181.065 2.99643 182.974L4.92603 182.448ZM219.45 108.876C232.005 107.491 242.321 107.115 249.665 107.806C253.343 108.152 256.212 108.761 258.23 109.607C260.268 110.463 261.239 111.473 261.511 112.506L263.441 111.98C262.936 110.063 261.273 108.706 259.011 107.757C256.727 106.799 253.63 106.165 249.866 105.811C242.324 105.101 231.853 105.493 219.246 106.883L219.45 108.876Z"/></clipPath><clipPath id="paint4_diamond_10_89_clip_path"><path d="M251.845 244.396C251.26 244.991 250.026 245.293 247.731 244.772C245.503 244.267 242.586 243.052 239.039 241.14C231.958 237.324 222.576 230.85 211.535 222.202C189.465 204.916 160.888 179.045 131.046 148.686L129.644 150.113C159.527 180.513 188.168 206.446 210.326 223.8C221.399 232.473 230.883 239.027 238.111 242.923C241.718 244.867 244.817 246.178 247.3 246.741C249.716 247.289 251.891 247.202 253.247 245.822L251.845 244.396ZM131.046 148.686C101.205 118.328 75.7741 89.2567 58.7822 66.8038C50.2819 55.5716 43.9178 46.0274 40.1665 38.8237C38.2873 35.215 37.093 32.2482 36.5961 29.9811C36.0844 27.6465 36.3809 26.3913 36.966 25.796L35.564 24.3697C34.2079 25.7493 34.122 27.9614 34.6608 30.4201C35.2145 32.9461 36.5035 36.0984 38.4144 39.7679C42.2432 47.1206 48.6862 56.7697 57.2111 68.0343C74.2697 90.5753 99.7618 119.713 129.644 150.113L131.046 148.686ZM218.45 188.669C230.709 203.736 240.177 216.771 245.991 226.612C248.902 231.54 250.867 235.618 251.819 238.722C252.296 240.276 252.502 241.53 252.475 242.496C252.447 243.455 252.195 244.04 251.845 244.396L253.247 245.822C254.069 244.986 254.42 243.837 254.457 242.555C254.493 241.279 254.223 239.785 253.712 238.121C252.689 234.789 250.63 230.55 247.69 225.573C241.802 215.606 232.262 202.481 219.977 187.382L218.45 188.669ZM36.966 25.796C37.3127 25.4434 37.8805 25.1879 38.8094 25.1563C39.7446 25.1245 40.9597 25.3253 42.4646 25.7972C45.4719 26.7401 49.4215 28.6951 54.1958 31.5984C63.7302 37.3965 76.3598 46.856 90.9738 59.1213L92.2356 57.5653C77.591 45.2744 64.8728 35.7413 55.2131 29.8671C50.3903 26.9342 46.2813 24.8831 43.0486 23.8696C41.4336 23.3632 39.9834 23.0982 38.7431 23.1403C37.4964 23.1828 36.3784 23.5412 35.564 24.3697L36.966 25.796Z"/></clipPath><clipPath id="paint5_diamond_10_89_clip_path"><path d="M195.619 15.0348C197.241 15.9877 198.464 17.7614 199.216 20.4653C199.968 23.1738 200.218 26.7229 199.953 31.0513C199.423 39.7038 196.853 51.2401 192.465 64.8781C183.694 92.1382 167.728 127.59 146.635 164.756L148.36 165.768C169.499 128.52 185.531 92.9409 194.355 65.5147C198.764 51.8096 201.391 40.0888 201.936 31.1908C202.208 26.744 201.965 22.9444 201.128 19.9334C200.29 16.9178 198.829 14.6012 196.606 13.2954L195.619 15.0348ZM146.635 164.756C125.543 201.921 103.347 233.714 84.5261 255.071C75.1103 265.756 66.5746 273.789 59.4737 278.582C55.9215 280.979 52.7754 282.534 50.0935 283.225C47.4161 283.915 45.2944 283.724 43.6721 282.771L42.6849 284.511C44.9081 285.817 47.6109 285.946 50.5969 285.176C53.5784 284.408 56.9347 282.722 60.5841 280.259C67.8864 275.33 76.5507 267.156 86.0129 256.418C104.948 234.931 127.221 203.016 148.36 165.768L146.635 164.756ZM43.6721 282.771C41.499 281.495 40.0392 278.733 39.4834 274.296C38.9308 269.886 39.3049 264.045 40.574 256.978C43.11 242.855 49.1738 224.079 58.1679 202.58L56.3374 201.783C47.3168 223.346 41.192 242.274 38.6189 256.603C37.3335 263.761 36.9229 269.833 37.5121 274.535C38.098 279.211 39.7066 282.762 42.6849 284.511L43.6721 282.771ZM148.366 50.2411C159.218 37.1098 169.15 27.0673 177.398 20.9409C181.526 17.8755 185.184 15.8268 188.288 14.8428C191.395 13.8581 193.817 13.9764 195.619 15.0348L196.606 13.2954C194.134 11.8438 191.075 11.846 187.682 12.9215C184.287 13.9976 180.429 16.1852 176.216 19.3146C167.783 25.5778 157.733 35.7586 146.838 48.9424L148.366 50.2411Z"/></clipPath><linearGradient id="paint0_linear_10_89" x1="38.5452" y1="48.6634" x2="232.994" y2="239.802" gradientUnits="userSpaceOnUse">
<stop stop-color="white"/>
<stop offset="1" stop-color="#EDF7F6"/>
</linearGradient>
<linearGradient id="paint1_linear_10_89" x1="31.5934" y1="43.4796" x2="243.365" y2="245.659" gradientUnits="userSpaceOnUse">
<stop stop-color="#27498F"/>
<stop offset="1" stop-opacity="0"/>
</linearGradient>
<linearGradient id="paint2_linear_10_89" x1="31.5934" y1="43.4796" x2="243.365" y2="245.659" gradientUnits="userSpaceOnUse">
<stop stop-color="#27498F"/>
<stop offset="1" stop-opacity="0"/>
</linearGradient>
<linearGradient id="paint3_diamond_10_89" x1="0" y1="0" x2="500" y2="500" gradientUnits="userSpaceOnUse">
<stop offset="0.368933" stop-color="#FF3800"/>
<stop offset="1" stop-color="#FF3800" stop-opacity="0"/>
</linearGradient>
<linearGradient id="paint4_diamond_10_89" x1="0" y1="0" x2="500" y2="500" gradientUnits="userSpaceOnUse">
<stop offset="0.345736" stop-color="#FF3800"/>
<stop offset="1" stop-color="#FF3800"/>
</linearGradient>
<linearGradient id="paint5_diamond_10_89" x1="0" y1="0" x2="500" y2="500" gradientUnits="userSpaceOnUse">
<stop offset="0.238495" stop-color="#FF3800"/>
<stop offset="1" stop-color="#FF3800" stop-opacity="0"/>
</linearGradient>
</defs>
</svg>
